<svg width="110" height="110" viewBox="0 0 110 110" fill="none" xmlns="http://www.w3.org/2000/svg">
<circle cx="55" cy="55" r="53.5" fill="white" stroke="#1949A7" stroke-width="3"/>
<path d="M51.8252 74.1742L57.5641 79.9131C58.1294 80.4783 58.8004 80.9267 59.5389 81.2326C60.2774 81.5385 61.069 81.696 61.8683 81.696C62.6677 81.696 63.4592 81.5385 64.1978 81.2326C64.9363 80.9267 65.6073 80.4783 66.1725 79.9131C66.7378 79.3479 67.1862 78.6768 67.4921 77.9383C67.798 77.1998 67.9554 76.4083 67.9554 75.6089C67.9554 74.8095 67.798 74.018 67.4921 73.2795C67.1862 72.541 66.7378 71.8699 66.1725 71.3047" fill="white"/>
<path d="M51.8252 74.1742L57.5641 79.9131C58.1294 80.4783 58.8004 80.9267 59.5389 81.2326C60.2774 81.5385 61.069 81.696 61.8683 81.696C62.6677 81.696 63.4592 81.5385 64.1978 81.2326C64.9363 80.9267 65.6073 80.4783 66.1725 79.9131C66.7378 79.3479 67.1862 78.6768 67.4921 77.9383C67.798 77.1998 67.9554 76.4083 67.9554 75.6089C67.9554 74.8095 67.798 74.018 67.4921 73.2795C67.1862 72.541 66.7378 71.8699 66.1725 71.3047" stroke="#1949A7" stroke-width="4" stroke-linecap="round" stroke-linejoin="round"/>
<path d="M60.4334 65.5656L67.6071 72.7393C68.7487 73.8808 70.2969 74.5222 71.9113 74.5222C73.5257 74.5222 75.074 73.8808 76.2155 72.7393C77.3571 71.5978 77.9984 70.0495 77.9984 68.4351C77.9984 66.8207 77.3571 65.2724 76.2155 64.1309L65.082 52.9973C63.4679 51.3853 61.2799 50.4798 58.9987 50.4798C56.7175 50.4798 54.5295 51.3853 52.9154 52.9973L50.3903 55.5225C49.2487 56.664 47.7005 57.3053 46.0861 57.3053C44.4717 57.3053 42.9234 56.664 41.7819 55.5225C40.6403 54.3809 39.999 52.8327 39.999 51.2183C39.999 49.6039 40.6403 48.0556 41.7819 46.9141L49.8451 38.8509C52.4627 36.24 55.8764 34.5769 59.5458 34.1248C63.2151 33.6726 66.9304 34.4572 70.1036 36.3544L71.4522 37.1579C72.674 37.8953 74.1267 38.151 75.5269 37.8752L80.5197 36.8709" fill="white"/>
<path d="M60.4334 65.5656L67.6071 72.7393C68.7487 73.8808 70.2969 74.5222 71.9113 74.5222C73.5257 74.5222 75.074 73.8808 76.2155 72.7393C77.3571 71.5978 77.9984 70.0495 77.9984 68.4351C77.9984 66.8207 77.3571 65.2724 76.2155 64.1309L65.082 52.9973C63.4679 51.3853 61.2799 50.4798 58.9987 50.4798C56.7175 50.4798 54.5295 51.3853 52.9154 52.9973L50.3903 55.5225C49.2487 56.664 47.7005 57.3053 46.0861 57.3053C44.4717 57.3053 42.9234 56.664 41.7819 55.5225C40.6403 54.3809 39.999 52.8327 39.999 51.2183C39.999 49.6039 40.6403 48.0556 41.7819 46.9141L49.8451 38.8509C52.4627 36.24 55.8764 34.5769 59.5458 34.1248C63.2151 33.6726 66.9304 34.4572 70.1036 36.3544L71.4522 37.1579C72.674 37.8953 74.1267 38.151 75.5269 37.8752L80.5197 36.8709" stroke="#1949A7" stroke-width="4" stroke-linecap="round" stroke-linejoin="round"/>
<path d="M80.5199 34.0015L83.3893 65.5656H77.6504" fill="white"/>
<path d="M80.5199 34.0015L83.3893 65.5656H77.6504" stroke="#1949A7" stroke-width="4" stroke-linecap="round" stroke-linejoin="round"/>
<path d="M28.8695 34.0015L26 65.5656L44.6516 84.2172C45.7931 85.3587 47.3414 86.0001 48.9558 86.0001C50.5702 86.0001 52.1184 85.3587 53.26 84.2172C54.4015 83.0757 55.0428 81.5274 55.0428 79.913C55.0428 78.2986 54.4015 76.7503 53.26 75.6088" fill="white"/>
<path d="M28.8695 34.0015L26 65.5656L44.6516 84.2172C45.7931 85.3588 47.3414 86.0001 48.9558 86.0001C50.5702 86.0001 52.1184 85.3588 53.26 84.2172C54.4015 83.0757 55.0428 81.5274 55.0428 79.913C55.0428 78.2986 54.4015 76.7503 53.26 75.6088" stroke="#1949A7" stroke-width="4" stroke-linecap="round" stroke-linejoin="round"/>
<path d="M28.8691 36.8711H51.8249H28.8691Z" fill="white"/>
<path d="M28.8691 36.8711H51.8249" stroke="#1949A7" stroke-width="4" stroke-linecap="round" stroke-linejoin="round"/>
</svg>
