<svg width="110" height="110" viewBox="0 0 110 110" fill="none" xmlns="http://www.w3.org/2000/svg">
<circle cx="55" cy="55" r="53.5" fill="white" stroke="#1949A7" stroke-width="3"/>
<path d="M62.75 60C63.3 57.25 64.675 55.325 66.875 53.125C69.625 50.65 71 47.075 71 43.5C71 39.1239 69.2616 34.9271 66.1673 31.8327C63.0729 28.7384 58.8761 27 54.5 27C50.1239 27 45.9271 28.7384 42.8327 31.8327C39.7384 34.9271 38 39.1239 38 43.5C38 46.25 38.55 49.55 42.125 53.125C44.05 55.05 45.7 57.25 46.25 60" fill="white"/>
<path d="M62.75 60C63.3 57.25 64.675 55.325 66.875 53.125C69.625 50.65 71 47.075 71 43.5C71 39.1239 69.2616 34.9271 66.1673 31.8327C63.0729 28.7384 58.8761 27 54.5 27C50.1239 27 45.9271 28.7384 42.8327 31.8327C39.7384 34.9271 38 39.1239 38 43.5C38 46.25 38.55 49.55 42.125 53.125C44.05 55.05 45.7 57.25 46.25 60" fill="#1949A7"/>
<path d="M62.75 60C63.3 57.25 64.675 55.325 66.875 53.125C69.625 50.65 71 47.075 71 43.5C71 39.1239 69.2616 34.9271 66.1673 31.8327C63.0729 28.7384 58.8761 27 54.5 27C50.1239 27 45.9271 28.7384 42.8327 31.8327C39.7384 34.9271 38 39.1239 38 43.5C38 46.25 38.55 49.55 42.125 53.125C44.05 55.05 45.7 57.25 46.25 60" stroke="#1949A7" stroke-width="4" stroke-linecap="round" stroke-linejoin="round"/>
<path d="M46.25 71H62.75H46.25Z" fill="white"/>
<path d="M46.25 71H62.75H46.25Z" fill="#1949A7"/>
<path d="M46.25 71H62.75" stroke="#1949A7" stroke-width="4" stroke-linecap="round" stroke-linejoin="round"/>
<path d="M49 82H60H49Z" fill="white"/>
<path d="M49 82H60H49Z" fill="#1949A7"/>
<path d="M49 82H60" stroke="#1949A7" stroke-width="4" stroke-linecap="round" stroke-linejoin="round"/>
</svg>
