<svg width="110" height="110" viewBox="0 0 110 110" fill="none" xmlns="http://www.w3.org/2000/svg">
<circle cx="55" cy="55" r="53.5" fill="white" stroke="#1949A7" stroke-width="3"/>
<path d="M53.2109 76.4211C48.6824 76.4348 44.3142 74.7461 40.9725 71.6898C37.6309 68.6335 35.56 64.433 35.1705 59.9212C34.781 55.4095 36.1013 50.9162 38.8697 47.3324C41.6381 43.7487 45.6523 41.3363 50.1161 40.5737C64.8161 37.7368 68.6846 36.3958 73.8425 30C76.4214 35.1579 79.0004 40.78 79.0004 50.6316C79.0004 64.8158 66.673 76.4211 53.2109 76.4211Z" fill="#1949A7"/>
<path d="M30 79.0001C30 71.2632 34.7711 65.1769 43.1011 63.5264C49.3421 62.2885 55.7895 58.3685 58.3684 55.7896" fill="#1949A7"/>
<path d="M30 79.0001C30 71.2632 34.7711 65.1769 43.1011 63.5264C49.3421 62.2885 55.7895 58.3685 58.3684 55.7896" stroke="white" stroke-width="4" stroke-linecap="round" stroke-linejoin="round"/>
</svg>
