<?xml version="1.0" encoding="UTF-8" standalone="no"?>
<!-- Created with Inkscape (http://www.inkscape.org/) -->

<svg
   width="210mm"
   height="297mm"
   viewBox="0 0 210 297"
   version="1.1"
   id="svg1"
   xml:space="preserve"
   inkscape:version="1.4.2 (ebf0e94, 2025-05-08)"
   sodipodi:docname="drawing.svg"
   xmlns:inkscape="http://www.inkscape.org/namespaces/inkscape"
   xmlns:sodipodi="http://sodipodi.sourceforge.net/DTD/sodipodi-0.dtd"
   xmlns="http://www.w3.org/2000/svg"
   xmlns:svg="http://www.w3.org/2000/svg"><sodipodi:namedview
     id="namedview1"
     pagecolor="#ffffff"
     bordercolor="#000000"
     borderopacity="0.25"
     inkscape:showpageshadow="2"
     inkscape:pageopacity="0.0"
     inkscape:pagecheckerboard="0"
     inkscape:deskcolor="#d1d1d1"
     inkscape:document-units="mm"
     showguides="true"
     inkscape:zoom="1.0167041"
     inkscape:cx="-956.52218"
     inkscape:cy="-456.86843"
     inkscape:window-width="1920"
     inkscape:window-height="1009"
     inkscape:window-x="-8"
     inkscape:window-y="-8"
     inkscape:window-maximized="1"
     inkscape:current-layer="layer1"><sodipodi:guide
       position="-318.31389,456.40682"
       orientation="0,-1"
       id="guide9"
       inkscape:locked="false" /></sodipodi:namedview><defs
     id="defs1" /><g
     inkscape:label="Layer 1"
     inkscape:groupmode="layer"
     id="layer1"><path
       id="path1"
       style="fill:#000000"
       d="M -319.858 -160.72972 L -319.858 -68.907939 L -318.53508 -68.907939 L -318.53508 -159.40681 L -228.03621 -159.40681 L -228.03621 -160.72972 L -319.858 -160.72972 z M -265.08666 -150.79493 C -265.41434 -150.76053 -264.7267 -150.46323 -263.13588 -149.89111 C -257.95852 -148.0291 -255.41761 -146.64375 -250.78056 -143.15405 C -247.77706 -140.89371 -244.11044 -139.11785 -240.35329 -138.10372 C -238.18921 -137.5196 -238.13037 -137.6604 -240.08612 -138.74657 C -241.10476 -139.3123 -243.13179 -140.7799 -244.59076 -142.00787 C -250.33671 -146.84406 -254.36926 -148.84446 -260.9448 -150.12107 C -263.41586 -150.60081 -264.75898 -150.82932 -265.08666 -150.79493 z M -281.72131 -150.73344 C -284.15032 -150.66024 -286.21599 -150.18738 -287.32975 -149.33249 C -287.5925 -149.1308 -287.74224 -149.01335 -287.73282 -148.98057 L -287.73231 -148.98005 L -287.73179 -148.97954 L -287.73179 -148.97902 L -287.73127 -148.9785 L -287.73127 -148.97799 L -287.73127 -148.97747 L -287.73076 -148.97695 L -287.73076 -148.97644 L -287.73024 -148.97644 C -287.73014 -148.97627 -287.72981 -148.97559 -287.72972 -148.9754 L -287.72972 -148.97489 C -287.69312 -148.94379 -287.36703 -149.06338 -286.64297 -149.33507 C -285.41004 -149.79773 -283.62501 -150.00534 -282.02206 -149.87251 C -281.74304 -149.84941 -281.59235 -149.83331 -281.57971 -149.80791 L -281.57971 -149.80739 L -281.5792 -149.80688 C -281.57915 -149.80666 -281.5792 -149.80581 -281.5792 -149.80481 L -281.5792 -149.80429 L -281.5792 -149.80223 L -281.5792 -149.80171 L -281.57971 -149.80119 C -281.59211 -149.77069 -281.7793 -149.7256 -282.15435 -149.6441 C -282.6344 -149.5398 -282.00702 -149.46039 -280.56685 -149.44359 C -277.65185 -149.40959 -275.98902 -148.83559 -272.9854 -146.82515 C -271.27037 -145.67722 -270.60088 -145.38392 -269.37374 -145.2454 C -267.54811 -145.03933 -265.29997 -144.35919 -265.48044 -144.06718 C -265.55254 -143.95052 -266.14879 -143.77448 -266.80542 -143.67598 C -267.46205 -143.57748 -267.99915 -143.39511 -267.99915 -143.27084 C -267.99915 -142.93623 -264.89567 -140.66405 -263.41131 -139.91187 C -262.70265 -139.55276 -261.62911 -139.1587 -261.02593 -139.03647 C -259.51361 -138.72999 -257.23478 -138.98027 -255.91926 -139.59716 C -254.73201 -140.15394 -253.97623 -141.33261 -253.97623 -142.62747 L -253.97623 -143.36489 L -254.79427 -142.52877 C -255.79864 -141.50147 -256.96982 -141.25452 -258.79764 -141.68541 C -260.78692 -142.15437 -262.6669 -143.16771 -266.14706 -145.64589 C -269.83234 -148.27014 -271.00428 -148.88505 -273.93212 -149.7335 C -276.49944 -150.47748 -279.29179 -150.80404 -281.72079 -150.73085 L -281.72131 -150.73344 z M -287.84341 -150.39806 C -288.51072 -150.41166 -290.90167 -148.90636 -291.68556 -147.97908 C -292.09259 -147.49758 -292.84981 -146.21212 -293.36866 -145.12241 C -294.20377 -143.36849 -294.32344 -142.85229 -294.40994 -140.62449 C -294.49044 -138.5528 -294.40988 -137.8486 -293.95467 -136.64024 C -292.89177 -133.81875 -291.06471 -132.01775 -288.29351 -131.06022 C -284.41582 -129.72036 -278.65361 -131.62209 -276.21518 -135.04654 L -275.67361 -135.8067 L -276.79757 -135.44083 C -277.41574 -135.23947 -278.75497 -134.7782 -279.77362 -134.41557 C -280.79226 -134.05294 -281.98289 -133.75353 -282.41945 -133.75153 C -283.64501 -133.74453 -285.86077 -134.91006 -287.15508 -136.24181 C -291.51944 -140.73241 -290.05658 -146.83936 -284.11858 -148.91804 C -283.47505 -149.14325 -283.18675 -149.33272 -283.47779 -149.33972 C -284.33645 -149.35992 -287.12291 -147.91617 -288.08836 -146.95072 C -289.40093 -145.63816 -289.94739 -144.23196 -289.95439 -142.15256 C -289.96239 -139.73356 -289.18485 -137.73277 -287.61345 -136.12761 C -286.93961 -135.4393 -286.15145 -134.74923 -285.86162 -134.59385 C -284.82522 -134.03819 -285.6924 -133.98789 -286.85846 -134.53597 C -288.76495 -135.43213 -290.12198 -136.7756 -291.07371 -138.70885 C -291.88302 -140.35278 -291.94445 -140.66568 -291.94445 -143.12925 C -291.94445 -145.52543 -291.87685 -145.89538 -291.24062 -146.97139 C -290.44303 -148.3203 -289.40334 -149.36018 -288.24029 -149.97224 C -287.80372 -150.20199 -287.62513 -150.39406 -287.84341 -150.39806 z M -228.03621 -149.49423 L -246.43612 -149.48545 L -243.658 -148.25193 L -240.87987 -147.01842 L -228.03621 -147.01738 L -228.03621 -149.49423 z M -254.09508 -149.26892 C -254.13146 -149.26799 -254.15438 -149.26189 -254.16123 -149.25291 C -254.16142 -149.2526 -254.16159 -149.25219 -254.16175 -149.25187 C -254.1618 -149.25174 -254.16216 -149.25066 -254.16226 -149.25032 L -254.16226 -149.2498 L -254.16226 -149.24929 L -254.16226 -149.24877 C -254.16226 -149.24827 -254.16225 -149.2477 -254.16226 -149.2467 C -254.16026 -149.1877 -253.69429 -149.00112 -252.65383 -148.60385 C -249.84453 -147.53123 -248.76295 -146.94666 -244.66362 -144.28422 C -240.25614 -141.42163 -237.50384 -140.08138 -235.50707 -139.82506 C -233.6903 -139.59183 -232.28091 -139.52324 -232.28091 -139.66848 L -232.28091 -139.66899 L -232.28091 -139.66951 L -232.28091 -139.67003 L -232.28143 -139.67054 L -232.28143 -139.67106 L -232.28143 -139.67158 C -232.30773 -139.73688 -233.15634 -140.04186 -234.18984 -140.35577 C -236.75495 -141.1349 -238.61156 -142.12336 -241.14445 -144.05891 C -244.68625 -146.76542 -249.12125 -148.61917 -253.44758 -149.20175 C -253.71937 -149.23835 -253.9191 -149.26247 -254.03721 -149.26737 C -254.05931 -149.26829 -254.07868 -149.26838 -254.09508 -149.26789 L -254.09508 -149.26892 z M -280.43508 -146.44222 C -281.69206 -146.44222 -283.72282 -145.68001 -284.76763 -144.81597 C -286.9882 -142.97959 -287.17076 -139.81867 -285.16451 -137.94455 C -284.71545 -137.52507 -284.29876 -137.18181 -284.23846 -137.18181 L -284.23795 -137.18181 C -284.2362 -137.18201 -284.23401 -137.183 -284.23226 -137.18387 C -284.19296 -137.21877 -284.38022 -137.67604 -284.66273 -138.22981 C -285.77209 -140.40433 -285.14327 -142.995 -283.2933 -143.87287 C -280.98097 -144.97015 -278.44059 -144.58017 -277.14897 -142.92978 L -276.50302 -142.1045 L -275.96403 -142.75201 C -275.24272 -143.6187 -275.26913 -143.81849 -276.23172 -144.80305 C -277.06143 -145.6517 -279.08796 -146.44222 -280.43456 -146.44222 L -280.43508 -146.44222 z M -269.77268 -144.31005 C -271.49655 -144.33415 -273.49684 -143.81228 -274.31349 -143.12511 C -274.72155 -142.78176 -275.449 -141.75024 -275.92993 -140.83326 C -277.20296 -138.40598 -277.93331 -137.52727 -278.95972 -137.18853 C -280.17689 -136.78683 -281.85756 -137.24053 -282.85819 -138.24117 C -283.76347 -139.14644 -283.82114 -138.98108 -283.01477 -137.79211 C -282.68735 -137.30933 -281.9432 -136.66989 -281.36112 -136.371 C -280.04906 -135.69728 -278.36765 -135.81967 -276.36763 -136.73532 C -274.4603 -137.60852 -273.257 -138.74064 -272.2733 -140.58625 C -271.50551 -142.02677 -270.45708 -143.17109 -269.16497 -143.97933 C -268.72602 -144.25386 -268.8044 -144.29655 -269.77268 -144.31005 z M -235.5882 -144.04134 L -232.67779 -142.74374 C -232.67779 -142.74374 -230.80625 -141.66748 -229.76737 -141.44615 C -229.3755 -141.36265 -228.03621 -141.44563 -228.03621 -141.44563 L -228.03621 -144.04134 L -235.5882 -144.04134 z M -299.75276 -135.28167 C -301.98056 -135.19517 -302.49676 -135.07549 -304.25068 -134.24038 C -305.34039 -133.72153 -306.62585 -132.96431 -307.10735 -132.55728 C -308.03463 -131.77339 -309.53993 -129.38245 -309.52633 -128.71514 C -309.52233 -128.49686 -309.33026 -128.67545 -309.10051 -129.11202 C -308.48845 -130.27507 -307.44857 -131.31476 -306.09966 -132.11235 C -305.02365 -132.74858 -304.6537 -132.81618 -302.25752 -132.81618 C -299.79395 -132.81618 -299.48105 -132.75474 -297.83712 -131.94543 C -295.90387 -130.9937 -294.56041 -129.63668 -293.66425 -127.73019 C -293.11617 -126.56413 -293.16646 -125.69695 -293.72212 -126.73335 C -293.8775 -127.02318 -294.56757 -127.81134 -295.25588 -128.48518 C -296.86104 -130.05658 -298.86183 -130.83412 -301.28083 -130.82612 C -303.36023 -130.81912 -304.76643 -130.27266 -306.07899 -128.96009 C -307.04444 -127.99464 -308.48819 -125.20818 -308.46799 -124.34952 C -308.46099 -124.05848 -308.27152 -124.34677 -308.04631 -124.9903 C -305.96763 -130.9283 -299.86068 -132.39117 -295.37008 -128.02681 C -294.03833 -126.7325 -292.8728 -124.51674 -292.8798 -123.29118 C -292.8818 -122.85462 -293.18121 -121.66399 -293.54384 -120.64535 C -293.90647 -119.6267 -294.36774 -118.28747 -294.5691 -117.6693 L -294.93497 -116.54534 L -294.17481 -117.08691 C -290.75036 -119.52534 -288.84863 -125.28755 -290.18849 -129.16524 C -291.14602 -131.93644 -292.94702 -133.7635 -295.76851 -134.8264 C -296.97687 -135.28161 -297.68107 -135.36217 -299.75276 -135.28167 z M -288.3979 -129.26963 L -288.02738 -127.72295 C -287.8236 -126.87228 -287.68661 -125.81909 -287.72301 -125.38253 C -287.77841 -124.71855 -287.70269 -124.60445 -287.26205 -124.68335 C -286.41436 -124.83511 -285.4826 -124.80364 -284.42037 -124.58826 C -284.2476 -124.55329 -283.64305 -124.42702 -283.61525 -124.47664 L -283.61525 -124.47716 C -283.61517 -124.47738 -283.61478 -124.47848 -283.61473 -124.47871 L -283.61473 -124.47922 C -283.61472 -124.47947 -283.6142 -124.48052 -283.61421 -124.48077 C -283.61466 -124.48437 -283.61752 -124.48925 -283.62248 -124.49421 C -283.61752 -124.48925 -283.61264 -124.48638 -283.60905 -124.48594 C -283.6088 -124.48593 -283.60774 -124.48645 -283.6075 -124.48646 L -283.60698 -124.48646 C -283.60675 -124.48651 -283.60565 -124.4869 -283.60543 -124.48698 L -283.60491 -124.48698 C -283.5553 -124.51478 -283.68156 -125.11933 -283.71653 -125.29209 C -283.93191 -126.35432 -283.96338 -127.28609 -283.81162 -128.13378 C -283.73272 -128.57442 -283.8463 -128.65013 -284.51028 -128.59473 C -284.94684 -128.55833 -286.00055 -128.69533 -286.85122 -128.89911 L -288.3979 -129.26963 z M -308.11401 -128.60507 C -308.15282 -128.59992 -308.26852 -128.45191 -308.46076 -128.20148 C -309.31565 -127.08772 -309.78851 -125.02204 -309.86171 -122.59303 L -309.85912 -122.59252 C -309.93231 -120.16352 -309.60575 -117.37117 -308.86177 -114.80385 C -308.01332 -111.87601 -307.39841 -110.70407 -304.77416 -107.01879 C -302.29598 -103.53863 -301.28264 -101.65865 -300.81368 -99.669368 C -300.38279 -97.841548 -300.62974 -96.670365 -301.65704 -95.665995 L -302.49316 -94.847957 L -301.75574 -94.847957 C -300.46088 -94.847957 -299.28222 -95.603741 -298.72544 -96.790991 C -298.10855 -98.106511 -297.85827 -100.38534 -298.16475 -101.89766 C -298.28698 -102.50084 -298.68103 -103.57438 -299.04014 -104.28304 C -299.79232 -105.7674 -302.0645 -108.87087 -302.39911 -108.87087 C -302.52338 -108.87087 -302.70576 -108.33378 -302.80426 -107.67715 C -302.90276 -107.02052 -303.07879 -106.42426 -303.19545 -106.35216 C -303.48746 -106.17169 -304.1676 -108.41984 -304.37367 -110.24547 C -304.51219 -111.47261 -304.80549 -112.1421 -305.95342 -113.85713 C -307.96386 -116.86075 -308.53786 -118.52358 -308.57186 -121.43858 C -308.58866 -122.87875 -308.66807 -123.50613 -308.77237 -123.02608 C -308.85387 -122.65103 -308.89896 -122.46384 -308.92946 -122.45144 L -308.92998 -122.45092 L -308.9305 -122.45092 L -308.93256 -122.45092 L -308.93308 -122.45092 C -308.93408 -122.45092 -308.93493 -122.45087 -308.93515 -122.45092 L -308.93566 -122.45144 L -308.93618 -122.45144 C -308.96158 -122.46408 -308.97768 -122.61477 -309.00078 -122.89379 C -309.13361 -124.49674 -308.926 -126.28177 -308.46334 -127.5147 C -308.19165 -128.23876 -308.07206 -128.56485 -308.10316 -128.60145 L -308.10367 -128.60145 C -308.10386 -128.60154 -308.10454 -128.60187 -308.10471 -128.60197 L -308.10471 -128.60249 L -308.10522 -128.60249 L -308.10574 -128.603 L -308.10626 -128.603 L -308.10677 -128.603 L -308.10729 -128.60352 L -308.10781 -128.60352 L -308.10833 -128.60404 L -308.10884 -128.60455 C -308.11038 -128.60499 -308.1121 -128.60532 -308.11401 -128.60507 z M -300.053 -127.4253 C -301.45939 -127.49275 -302.91127 -126.88843 -303.94424 -125.63936 C -304.80828 -124.59455 -305.5705 -122.56379 -305.5705 -121.30681 L -305.5705 -121.30629 C -305.5705 -119.95969 -304.77997 -117.93316 -303.93132 -117.10345 C -302.94676 -116.14086 -302.74697 -116.11445 -301.88028 -116.83576 L -301.23278 -117.37475 L -302.05805 -118.0207 C -303.70844 -119.31232 -304.09842 -121.8527 -303.00114 -124.16503 C -302.12327 -126.015 -299.5326 -126.64382 -297.35808 -125.53446 C -296.80431 -125.25195 -296.34705 -125.06469 -296.31215 -125.10399 C -296.31127 -125.10574 -296.31028 -125.10793 -296.31008 -125.10968 L -296.31008 -125.11019 C -296.31008 -125.17049 -296.65334 -125.58717 -297.07282 -126.03623 C -297.89275 -126.91397 -298.95915 -127.37284 -300.053 -127.4253 z M -297.91257 -124.45235 C -298.02891 -124.45232 -297.85037 -124.21085 -297.36945 -123.72992 C -296.36881 -122.72929 -295.9151 -121.04862 -296.3168 -119.83145 C -296.65554 -118.80504 -297.53426 -118.07469 -299.96154 -116.80166 C -300.87852 -116.32073 -301.91004 -115.59328 -302.25339 -115.18522 C -302.94056 -114.36857 -303.46243 -112.36828 -303.43833 -110.64441 C -303.42483 -109.67613 -303.38213 -109.59774 -303.1076 -110.03669 C -302.29936 -111.3288 -301.15504 -112.37724 -299.71452 -113.14503 C -297.86891 -114.12873 -296.73679 -115.33203 -295.86359 -117.23936 C -294.94794 -119.23938 -294.82556 -120.92079 -295.49928 -122.23285 C -295.79817 -122.81493 -296.4376 -123.55907 -296.92038 -123.88649 C -297.47771 -124.26448 -297.80991 -124.45238 -297.91257 -124.45235 z M -309.88754 -106.03797 C -309.9058 -106.03592 -309.91783 -106.00959 -309.9232 -105.95839 C -309.95759 -105.63071 -309.72908 -104.28758 -309.24934 -101.81652 C -307.97273 -95.240984 -305.97233 -91.208437 -301.13614 -85.462484 C -299.90817 -84.003514 -298.44057 -81.976489 -297.87484 -80.957849 C -296.78867 -79.002099 -296.64787 -79.060936 -297.23199 -81.225016 C -298.24612 -84.982166 -300.02198 -88.648784 -302.28232 -91.652287 C -305.77202 -96.289337 -307.15737 -98.830245 -309.01938 -104.0076 C -309.50211 -105.34986 -309.78895 -106.04905 -309.88754 -106.03797 z M -308.37911 -95.033993 C -308.37945 -95.033886 -308.38001 -95.033531 -308.38014 -95.033476 C -308.38046 -95.033316 -308.38087 -95.033153 -308.38118 -95.032959 C -308.39016 -95.02611 -308.39626 -95.003188 -308.3972 -94.966813 L -308.39616 -94.966813 C -308.39665 -94.950413 -308.39657 -94.931036 -308.39565 -94.908936 C -308.39075 -94.790826 -308.36662 -94.591097 -308.33002 -94.319307 C -307.74744 -89.992977 -305.89369 -85.557982 -303.18718 -82.016182 C -301.25163 -79.483292 -300.26318 -77.626678 -299.48405 -75.061568 C -299.17014 -74.028068 -298.86515 -73.179458 -298.79985 -73.153158 L -298.79933 -73.153158 L -298.79882 -73.153158 L -298.7983 -73.152641 L -298.79778 -73.152641 L -298.79727 -73.152641 L -298.79675 -73.152641 C -298.65151 -73.152641 -298.7201 -74.56203 -298.95333 -76.3788 C -299.20965 -78.37557 -300.5499 -81.127867 -303.41249 -85.535347 C -306.07493 -89.63468 -306.6595 -90.716257 -307.73212 -93.525557 C -308.12939 -94.566017 -308.31598 -95.031993 -308.37498 -95.033993 C -308.37598 -95.033983 -308.37654 -95.033993 -308.37704 -95.033993 L -308.37756 -95.033993 L -308.37808 -95.033993 L -308.37859 -95.033993 L -308.37911 -95.033993 z M -308.61372 -87.307849 L -308.62251 -68.907939 L -306.14565 -68.907939 L -306.14669 -81.751599 L -307.3802 -84.529724 L -308.61372 -87.307849 z M -303.16961 -76.459932 L -303.16961 -68.907939 L -300.5739 -68.907939 C -300.5739 -68.907939 -300.49092 -70.247229 -300.57442 -70.639099 C -300.79575 -71.677979 -301.87201 -73.549516 -301.87201 -73.549516 L -303.16961 -76.459932 z "
       inkscape:export-filename="path1.svg"
       inkscape:export-xdpi="96"
       inkscape:export-ydpi="96" /><path
       id="path1-3"
       style="fill:#000000"
       d="m -137.90424,-171.6505 h 1.32292 v -2.06706 h -1.32292 z m 11.23601,-2.06706 5.2e-4,2.06706 h 2.47582 v -2.06706 z m 5.45238,2.06706 h 2.6324 c -0.002,-0.70714 -0.0144,-1.51993 -0.0243,-2.06706 h -2.60811 z"
       inkscape:export-filename="path1-ew.svg"
       inkscape:export-xdpi="96"
       inkscape:export-ydpi="96" /></g></svg>
