<?xml version="1.0" encoding="UTF-8"?>
<svg id="RichMind_alt_1_PSD_Image" data-name="RichMind  alt 1 PSD Image" xmlns="http://www.w3.org/2000/svg" viewBox="0 0 1472 832">
  <path d="M824.91,224.88h-170.99v6.27h170.99v-6.27ZM677.92,237.05h-21.62v9.45h21.62v-9.45ZM732.61,237.05h-21.62v9.45h21.62v-9.45ZM705.26,237.05h-21.62v9.45h21.62v-9.45ZM822.1,237.05h-21.62v9.45h21.62v-9.45ZM817.52,355.52v-106.21h-12.47v106.21h12.47ZM762.83,355.52v-106.21h-12.47v106.21h12.47ZM728.03,355.52v-106.21h-12.47v106.21h12.47ZM700.69,355.52v-106.21h-12.47v106.21h12.47ZM673.34,355.52v-106.21h-12.47v106.21h12.47ZM790.18,355.52v-106.21h-12.47v106.21h12.47ZM794.75,237.05h-21.62v9.45h21.62v-9.45ZM767.41,237.05h-21.62v9.45h21.62v-9.45ZM643.33,368.15v3.18h190.33v-3.18c0-3.46-2.81-6.27-6.27-6.27h-177.79c-3.46,0-6.27,2.81-6.27,6.27ZM841.04,377.7h-205.1c-3.46,0-6.27,2.81-6.27,6.27v3.18h217.64v-3.18c0-3.46-2.81-6.27-6.27-6.27ZM855.28,222.11,836.17,293.12s-1.36-9.33,7.7-10.14c0,0,5.89.09,9.15-7.06,0,0,.91-7.25,12.59-19.56,0,0,8.79-5.8,13.68-18.29,0,0,2.08-7.7,4.26-12.32,0,0-.03-8.97,20.84-14.04,0,0-21.04-4.33-30.71,26.81,0,0-1.03,1.55-1.5,1.37-.5-.19-.61-.66-.45-2.1,0,0,0,0,0,0,.19-13.09,7.84-25.9,7.84-25.9,0,0,5.8-7.43,11.77-8.97l14.19-2.84c5.65-1.05,6.15-4.72,6.15-4.72l5.94-12.92-6.19,7.15c-3.89,7.03-7.79,6.9-7.79,6.9-13.68,1.25-15.01,3.46-15.01,3.46-.21.16.08-.91.08-.91,0,0,.22-3.2.63-4.17.52-1.23,2-3.8,3.26-4.26,1.94-.7,6.88,1,7.88-2.45,0,0,3.62-2.49,4.7-3.87.77-.98,2.85-5.22,2.85-5.22,0,0,17.26-.97,11.28-19.78,0,0,3.38,16.09-14.45,15.66,0,0-.99,4.92-1.74,6.09-.79,1.23-3.66,3.15-3.66,3.15l.2.8-8.51,1.09s-2.08-7.7-5.16-1.99l-.45,1.99s-5.52-.54-2.81-7.97c0,0,.95-3.41,4.8-4.26.69-.15,2.81.09,2.81.09,0,0-.36,5.89,6.43,3.53,0,0,2.72-1.36,2.54-5.34l-.45-4.89s-2.08-5.89-8.06-4.71c0,0-3.98.09-4.62,4.17v2.81l-3.35-.18-.18-6.43s-3.8.27-4.64-5.78c0,0-1.37-4.96,3.72-6.61,0,0,4.68-.41,6.61-2.07,0,0,3.31-.96,3.31-3.31,0,0,.67-3.44,3.69-3.33,0,0,5.08.43,8.86-2.92,0,0,5.73-2.7,19.78-.43,0,0,29.4,6.48,33.29,28.75,0,0-8.87-5.75-12.04-6.93,0,0,12.59,14.31,11.32,25.18l-7.77-11.01v4.01s5.97,6.3,7.59,9.1c-.32,3.6-1.06,10.82-2,13.57,0,0-3.98,4.71-1.72,11.77h-2.05c-17.09-15.49-16.39-27.45-16.39-27.45-3.28,14.47-12.13,21.11-12.13,21.11l1.75,1.04c7.31-4.46,9.24-10.85,9.24-10.85,0,0,4.96,7.29,6.89,9.5,2.01,2.31,8.9,9.46,8.9,9.46,0,0,10.78,12.68,3.17,27.8h-1.27l-2.45-1.63-3.01-5.4c4.68-11.61-10.78-20.92-10.78-20.92l1.43,3.04c2.66,2.03,4.28,3.77,5.25,5.19,2.25,3.31.29,8.8-.59,10.21-3.06,4.86-9.47,5.9-9.47,5.9,14.16-2.1,15.8,5.51,15.8,5.51,0,0,7.97,12.95,14.13,28.62,0,0,3.53,10.05,12.32,17.84,0,0,8.6,6.7,10.96,19.2,0,0,.09,10.05,1.99,17.39l1.45,2.35v9.33l-3.99-5.89s-.72,19.2,12.32,23.73h7.34s4.98,1.9,3.71,8.33l.21,3.53h.61v12.41l-3.71-1.99s-.91,11.86-6.25,20.47l-4.08-5.34s-1.36,9.96-5.07,13.04c0,0-1.63,2.08-4.53,3.08l-1.15-.21c.22-1.32.55-2.85-2.45-5.82l-.14,2.56s-.18,4.72-2.01,6.37c-1.32,1.19-3.59,2.21-7.47,2.17,0,0-7.06-4.53-1.36-13.4,0,0-4.44,1.27-4.98,5.43,0,0-1.45,1.27-2.26,6.16,0,0-4.2-2.96-3.81-8.24,1.22-6.17,5.78-7.91,5.78-7.91-7.29-.44-9.59,7.76-10.03,10,0,0-4.89-5.62,1.72-11.77,0,0,6.7-7.61,16.76-.72,0,0,5.62,2.99,9.51-4.71,0,0,6.34-6.61-3.08-18.2,0,0-9.24-7.79-15.58-10.42,0,0-21.65-12.32-17.57-34.96,0,0,1.66-8.01,2.97-10.82,1.54-3.3,3.29-6.23,3.29-6.23.69-1.72.91-3.23,1.1-4.53,1.13-7.81-8.87-12.18-12.17-13.67-9.36-4.22-19.3-3.64-19.33-3.64-4.33-.62-22.33-4.17-30.92-20.8,11.9-4.31,17-11.64,17-11.64,10.09-11.32,7.91-13.5,7.91-13.5-3.82,9.99-25.99,22.87-25.99,22.87l-5.07,2.26,2.9,6.43-.54,4.08-4.44-.45-3.53-3.44-3.71.36.18,8.06-8.33.36s-1.45,3.26,1.36,5.16c0,0-.82,5.62-5.52,4.17l-3.17-.36v2.05s-.04,5.62-3.09,8.44c-.53.49-1.16.88-1.86,1.11-.85.29-1.8.35-2.75.08,0,0-3.7-.54-4.19-6.14-.17-1.96-.14-3.92-.14-3.92-5.17,5.02-.39,12.41-.39,12.41,0,0-8.33.36-7.79-10.78,0,0,.34-3.65,3.09-6.26,1.04-.98,1.98-1.78,1.98-1.78,0,0-3.65,1.51-4.73,2.15-1.22.72-4.14,3.26-4.14,3.26ZM904.09,146.9c-3.22-1.54-5.77-1.91-7.59-1.12-1.51.66-1.93,1.87-1.97,2.01-.18.57.13,1.19.7,1.37.11.03.22.05.33.05.45,0,.87-.28,1.02-.74,0-.02.19-.47.85-.73.69-.27,2.36-.5,5.73,1.11.54.26,1.18.03,1.44-.51.26-.54.03-1.18-.51-1.44ZM923.81,157.63c12.94,6.84,18.21,22.45,18.21,22.45,2.91-17.83-18.21-22.45-18.21-22.45ZM921.61,152.05c7.77-1.83,4-6.51,4-6.51-3.2-3.08-8,0-8,0,7.2.46,4,6.51,4,6.51ZM892.3,239.88l-17.92,13.9c14.55.52,17.92-13.9,17.92-13.9ZM906.71,213.38c-3.77,7.14-12.85,7.27-12.85,7.27l-2.48,3.12c11.65-.82,15.33-10.39,15.33-10.39ZM916.71,223.77s-4.55,9.9-10,15.08c0,0,10.13,3.88,10-15.08ZM927.06,221.05s-4.55,9.9-10,15.08c0,0,10.13,3.88,10-15.08ZM933.21,225.28s-4.1,8.94-9.03,13.61c0,0,9.14,3.5,9.03-13.61ZM931.07,302.15l-.43-.63v.02c-5.08-2.08-9.43,3.89-9.43,3.89-7.06,3.35-15.67,5.71-15.67,5.71-8.24,2.99-3.89,19.11-3.89,19.11,1.09,9.33,9.69,20.92,9.69,20.92.63,4.44.27,6.7.27,6.7-1.45,5.16-8.15,9.6-8.15,9.6-8.51,6.97-16.75,4.26-16.75,4.26-6.43-5.25-14.22.45-14.22.45-7.88,7.25-3.08,12.77-3.08,12.77v-1.11s.49-3.11,1.19-4.32c1.3-2.29,3.83-5.13,8.24-4.87,0,0-5.65,2.24-6.19,10.01,2.55,5.59,5.17,5.82,5.17,5.82,1.8-9.15,6.17-8.33,6.17-8.33-1.27,6.34,1,9.78,1,9.78l6.61-.09c2.63-1.63,4.71-4.17,4.71-4.17l3.62-.18-.09,1.45,1,.27c3.17-.45,4.53-3.44,4.53-3.44l.63,1.36c8.24-3.89,9.87-8.06,9.87-8.06h3.35l.91,2.45,7.43-8.33,2.17-.27.09,3.71,10.23-9.96c2.08-3.89.36-7.7.36-7.7-4.71-1.18-8.51-6.16-8.51-6.16l.18-5.34c1.09-6.52,8.97-7.97,8.97-7.97v-5.07l-1.45.09-14.03-2.13c7.06-3.83,16.2-1.13,16.2-1.13l1.13-2.45,1.05-8.79s8.44-4.61-12.87-17.86ZM858.18,215.54s-1.77,1.01-2.42,3.11c-1.44,4.66-.17,7.16.17,8.3.88,2.95,2.34,3.14,2.34,3.14,0,0,.1-3.24,1.1-4.86.72-1.17,1.85-2.34,3.63-2.9,0,0-2.13,5.92-1.84,8.83,0,0,.49,2.43.8,3.09,1.1,2.28,6.73,6.89,6.73,6.89,0,0,.54,0-.14-1.63-1.1-2.65-1.59-12.37,8.32-28.67l-.94-.41c-6.16-1.45-13.22-10.18-17.75-13.4-1.22-.87-5.43-2.54-5.43-2.54-1.99-6.52-7.79-8.88-7.79-8.88-1.36-.92-3.52-1.12-5.39-1.25-2.79-.2-5.89,1.07-6.71,1.51-5.14,2.71-4.05,5.23-4.05,5.23.56-.34,2.02-1.1,2.53-1.23,3.31-.78,4.86-.34,5.16-.3,1.03.12,1.56.49,1.56.49-5.71,3.8-6.07,9.41-6.07,9.41-.27,1.43.6,3.04,1.09,3.09.13.01.24-.13.35-.31.12-.22,1.17-1.57,1.7-2.1.32-.32.67-.57.94-.8,1.23-1.05,3-1.13,3.46-.83.24.16.6.85.15,1.02-1.45.56-1.44,3.27-1.44,3.27.5,7.09,10.08,3.38,10.08,3.38,0,0-1.18.9-.74,1.61.27.43,3.76-.13,4.51-2.02l-1.32,14.84c-.03.28.35.42.5.18.94-1.49,3.06-4.07,6.9-5.27ZM1023.07,233.27l-2.79-9.59s-5.14-9.76-11.94-8.37c0,0-3.4-.7-4.45-3.66,0,0-1.33-2.09-4.19-1.48,0,0-3.48-2.49-6.18-.11,0,0-2.44-.59-3.49,2.64,0,0-11.16-1.13-14.73,5.84,0,0-10.37,12.82,1.92,30.51l14.18,19.78c17.4,19.09,20.54,30.95,20.54,30.95,4.97,11.35-2.92,17.73-2.92,17.73-11.56,10.92-19.97.7-19.97.7v9.03s13.02,4.37,20.78-2.34c0,0,8.46-3.92,9.42-17.35,0,0-1.13-14.04-6.8-20.92l-17.7-25.02-.44-2.44-.26-14.12-2.7,3.31h-1.92l-.38-7.5-4.94,4.27-2.96-.17s-8.81-8.54-3.84-19.7c0,0,1.66-8.37,10.81-7.76,0,0,7.93-.17,7.5,8.63,0,0-.26,8.46,5.06,12.12,0,0,4.27,5.58,7.93,5.32l3.5-.23c-6.53-8.68-5.46-14.54-5.46-14.54,3.49,10.52,7.37,14.42,7.37,14.42,0,0,.96,3.4,4.27,3.4l.96-.7-1.48-3.84c-.57-1.48-1.02-3.06-1.36-4.43-.54-2.19-2.44-7.11-3.26-8.28-2.11-2.98-4-4.09-4-4.09,11.14,1.79,12.63,14.89,12.77,16.5,1.09-.61,2.5-2.53,1.16-8.51ZM949.18,311.25c.72-2.58.78-4.8.56-6.58-.38-3.17-1.34-5.37-6.74-8.26-6.35-3.4-14.69-4.03-18.65-4.12-1.43-.03-2.29,0-2.29,0,1.25.64,2.43,1.26,3.57,1.87,18.99,10.23,23.55,17.09,23.55,17.09ZM637.44,292s-.05-.14-.17-.37c-.52-1.02-2.36-3.78-7.08-3.93,0,0,3.74,2.92,4.07,4.96l1,3.08c.54,11.14-7.79,10.78-7.79,10.78l.91-1.45c1.99-1.36.54-5.34.54-5.34,0,0,.48-3.57-1.84-5.61,0,0,.79,3.91-1.24,5.43-.82,3.35-3.08,4.62-3.08,4.62-4.26,1.18-7.7-4.71-7.7-4.71v-6.97s-3.17.36-3.17.36c-4.71,1.45-5.52-4.17-5.52-4.17,2.81-1.9,1.36-5.16,1.36-5.16l-8.33-.36.18-8.06-3.71-.36-3.53,3.44-4.44.45-.54-4.08,2.9-6.43-5.07-2.26s-22.17-12.88-25.99-22.87c0,0-2.18,2.18,7.91,13.5,0,0,5.1,7.33,17,11.64-8.59,16.63-26.59,20.18-30.92,20.8-.04,0-9.97-.58-19.33,3.64-3.3,1.49-13.3,5.86-12.17,13.67.19,1.3.41,2.82,1.1,4.53,0,0,1.75,2.92,3.29,6.23,1.31,2.81,2.97,10.82,2.97,10.82,4.08,22.64-17.57,34.96-17.57,34.96-6.34,2.63-15.58,10.42-15.58,10.42-9.42,11.59-3.08,18.2-3.08,18.2,3.89,7.7,9.51,4.71,9.51,4.71,10.05-6.88,16.76.72,16.76.72,6.61,6.16,1.72,11.77,1.72,11.77-.45-2.23-2.74-10.43-10.03-10,0,0,4.56,1.74,5.78,7.91.4,5.29-3.81,8.24-3.81,8.24-.82-4.89-2.26-6.16-2.26-6.16-.54-4.17-4.98-5.43-4.98-5.43,5.71,8.88-1.36,13.4-1.36,13.4-3.88.04-6.15-.98-7.47-2.17-1.83-1.65-2.01-6.37-2.01-6.37l-.14-2.56c-3,2.97-2.67,4.49-2.45,5.82l-1.15.21c-2.9-1-4.53-3.08-4.53-3.08-3.71-3.08-5.07-13.04-5.07-13.04l-4.08,5.34c-5.34-8.6-6.25-20.47-6.25-20.47l-3.71,1.99v-12.41h.61s.21-3.53.21-3.53c-1.27-6.43,3.71-8.33,3.71-8.33h7.34c13.04-4.53,12.32-23.73,12.32-23.73l-3.99,5.89v-9.33s1.45-2.35,1.45-2.35c1.9-7.34,1.99-17.39,1.99-17.39,2.35-12.5,10.96-19.2,10.96-19.2,8.78-7.79,12.32-17.84,12.32-17.84,6.16-15.67,14.13-28.62,14.13-28.62,0,0,1.65-7.61,15.8-5.51,0,0-6.41-1.04-9.47-5.9-.88-1.4-2.84-6.9-.59-10.21.97-1.43,2.59-3.16,5.25-5.19l1.43-3.04s-15.46,9.31-10.78,20.92l-3.01,5.4-2.45,1.63h-1.27c-7.61-15.12,3.17-27.8,3.17-27.8,0,0,6.89-7.15,8.9-9.46,1.93-2.21,6.89-9.5,6.89-9.5,0,0,1.94,6.39,9.24,10.85l1.75-1.04s-8.85-6.64-12.13-21.11c0,0,.69,11.95-16.39,27.45h-2.05c2.26-7.06-1.72-11.77-1.72-11.77-.94-2.74-1.67-9.97-2-13.57,1.63-2.8,7.59-9.1,7.59-9.1v-4.01s-7.77,11.01-7.77,11.01c-1.27-10.87,11.32-25.18,11.32-25.18-3.17,1.18-12.04,6.93-12.04,6.93,3.89-22.27,33.29-28.75,33.29-28.75,14.05-2.27,19.78.43,19.78.43,3.78,3.35,8.86,2.92,8.86,2.92,3.03-.11,3.69,3.33,3.69,3.33,0,2.34,3.31,3.31,3.31,3.31,1.93,1.65,6.61,2.07,6.61,2.07,5.09,1.65,3.72,6.61,3.72,6.61-.84,6.05-4.64,5.78-4.64,5.78l-.18,6.43-3.35.18v-2.81c-.63-4.08-4.62-4.17-4.62-4.17-5.98-1.18-8.06,4.71-8.06,4.71l-.45,4.89c-.18,3.98,2.54,5.34,2.54,5.34,6.79,2.35,6.43-3.53,6.43-3.53l2.81-.09.09-1.18,4.17-.09.18,1-1.45-.09-.54,1.45,2.35,3.17c2.72,7.43-2.81,7.97-2.81,7.97l-.45-1.99c-3.08-5.71-5.16,1.99-5.16,1.99l-8.51-1.09.2-.8s-2.87-1.92-3.66-3.15c-.75-1.17-1.74-6.09-1.74-6.09-17.83.43-14.45-15.66-14.45-15.66-5.98,18.81,11.28,19.78,11.28,19.78,0,0,2.09,4.23,2.85,5.22,1.08,1.38,4.7,3.87,4.7,3.87,1,3.44,7.88,2.45,7.88,2.45l3.26,4.26.63,4.17-1.02.32s-.23-1.6-13.91-2.86c0,0-3.9.13-7.79-6.9l-6.19-7.15,5.94,12.92s.5,3.68,6.15,4.72l14.19,2.18v.67c5.98,1.54,11.77,8.97,11.77,8.97,0,0,7.65,12.81,7.84,25.9h0c-.26.52-.41,1-.41,1l-1.54-.27c-4.17-12.59-9.69-19.56-9.69-19.56-1.32-6.78-21.02-7.25-21.02-7.25,20.87,5.07,20.84,14.04,20.84,14.04,2.17,4.62,4.26,12.32,4.26,12.32,4.89,12.5,13.68,18.29,13.68,18.29,11.68,12.32,12.59,19.56,12.59,19.56,3.26,7.15,9.15,7.06,9.15,7.06,9.06.82,7.7,10.14,7.7,10.14-.31-.7-.89-1.01-1.54-1.11M570.64,148.34c.26.54.9.77,1.44.51,3.37-1.61,5.04-1.39,5.73-1.11.66.26.84.71.85.73.14.46.56.74,1.02.74.11,0,.22-.02.33-.05.57-.18.88-.8.7-1.37-.04-.14-.46-1.35-1.97-2.01-1.82-.8-4.38-.42-7.59,1.12-.54.26-.77.9-.51,1.44ZM533.22,180.08s5.27-15.61,18.21-22.45c0,0-21.12,4.61-18.21,22.45ZM557.63,145.54s-4.8-3.08-8,0c0,0-3.77,4.68,4,6.51,0,0-3.2-6.05,4-6.51ZM600.86,253.77l-17.92-13.9s3.38,14.42,17.92,13.9ZM583.85,223.77l-2.48-3.12s-9.08-.13-12.85-7.27c0,0,3.68,9.57,15.33,10.39ZM568.53,238.85c-5.45-5.18-10-15.08-10-15.08-.13,18.96,10,15.08,10,15.08ZM558.18,236.13c-5.45-5.18-10-15.08-10-15.08-.13,18.96,10,15.08,10,15.08ZM551.06,238.89c-4.92-4.67-9.03-13.61-9.03-13.61-.12,17.11,9.03,13.61,9.03,13.61ZM531.29,320.02l1.05,8.79,1.13,2.45s9.14-2.7,16.2,1.13l-14.03,2.13-1.45-.09v5.07s7.88,1.45,8.97,7.97l.18,5.34s-3.8,4.98-8.51,6.16c0,0-1.72,3.8.36,7.7l10.23,9.96.09-3.71,2.17.27,7.43,8.33.91-2.45h3.35s1.63,4.17,9.87,8.06l.63-1.36s1.36,2.99,4.53,3.44l1-.27-.09-1.45,3.62.18s2.08,2.54,4.71,4.17l6.61.09s2.26-3.44,1-9.78c0,0,4.37-.82,6.17,8.33,0,0,2.62-.23,5.17-5.82-.54-7.77-6.19-10.01-6.19-10.01,4.41-.26,6.94,2.58,8.24,4.87.69,1.22,1.19,4.32,1.19,4.32v1.11s4.8-5.52-3.08-12.77c0,0-7.79-5.71-14.22-.45,0,0-8.24,2.72-16.75-4.26,0,0-6.7-4.44-8.15-9.6,0,0-.36-2.26.27-6.7,0,0,8.6-11.59,9.69-20.92,0,0,4.35-16.12-3.89-19.11,0,0-8.6-2.35-15.67-5.71,0,0-4.35-5.98-9.42-3.89v-.02s-.44.63-.44.63c-21.31,13.25-12.87,17.86-12.87,17.86ZM624.58,221.93l-.91-10.14-1-3.08.46.03v-2.95c1.15,1.49,3.39,3.16,3.39,3.16l2.04.13.27-1.81s8.15,1.81,8.15-4.44l.09-2.72,3.53.27s3.35,2.9,2.63-.91c0,0,1-3.8-4.71-7.61,0,0-.63-2.17,1.09-2.08,1.72.09,3.62-.54,5.89.82,0,0,2.72-2.72-6.16-6.07,0,0-6.25-.82-9.06,1.09,0,0-5.8,2.35-7.79,8.88l-5.43,2.54s-11.59,11.96-17.75,13.4l-.27,1.27c12,19.74,7.17,27.16,7.17,27.16,0,0,0,0,0,0,.09.33.17.69.26,1.11l.09,1.18,7.25-7.06.29-2.91c.29-2.91-1.84-8.83-1.84-8.83,4.24,1.35,4.81,6.13,4.81,6.13l-.09,1.63s2.81-.36,2.99-7.97c.49-4.25-2.9-6.58-2.9-6.58,5.58,1.73,6.08,6.45,6.08,6.45M619.96,222.11,453.33,241.78c.14-1.61,1.63-14.72,12.77-16.5,0,0-1.88,1.11-4,4.09-.82,1.16-2.73,6.08-3.26,8.28-.34,1.38-.79,2.95-1.36,4.43l-1.48,3.84.96.7c3.31,0,4.27-3.4,4.27-3.4,0,0,3.87-3.9,7.37-14.42,0,0,1.07,5.87-5.46,14.54l3.5.23c3.66.26,7.93-5.32,7.93-5.32,5.32-3.66,5.06-12.12,5.06-12.12-.44-8.81,7.5-8.63,7.5-8.63,9.15-.61,10.81,7.76,10.81,7.76,4.97,11.16-3.84,19.7-3.84,19.7l-2.96.17-4.94-4.27-.38,7.5h-1.92s-2.7-3.31-2.7-3.31l-.26,14.12-.44,2.44-17.7,25.02c-5.67,6.89-6.8,20.92-6.8,20.92.96,13.43,9.42,17.35,9.42,17.35,7.76,6.71,20.78,2.34,20.78,2.34v-9.03s-8.41,10.22-19.97-.7c0,0-7.89-6.38-2.92-17.73,0,0,3.13-11.87,20.54-30.95l14.18-19.78c12.29-17.7,1.92-30.51,1.92-30.51-3.57-6.97-14.73-5.84-14.73-5.84-1.05-3.23-3.49-2.64-3.49-2.64-2.7-2.38-6.18.11-6.18.11-2.87-.61-4.19,1.48-4.19,1.48-1.05,2.96-4.45,3.66-4.45,3.66-6.8-1.39-11.94,8.37-11.94,8.37l-2.79,9.59c-1.34,5.98.07,7.89,1.16,8.51ZM549.6,294.16c1.14-.61,2.32-1.24,3.57-1.87,0,0-.87-.03-2.29,0-3.97.09-12.3.72-18.65,4.12-5.39,2.89-6.35,5.1-6.74,8.26-.21,1.78-.15,3.99.56,6.58,0,0,4.55-6.86,23.55-17.09ZM743.53,158.96c-3.93-.83-5.99,0-5.99,0l-94.64,54.14v5.79h191.76v-5.79l-91.13-54.14ZM817.21,216.11l-76.9-42.8-76.9,42.8h-6.95l3.63-4.36,80.23-44.82,80.23,44.82,3.63,4.36h-6.95Z"/>
  <path d="M442.37,461.08c3.94,7.58,3.94,18.94-1.67,26.96-6.97,9.69-15.91,11.81-22.72,12.57-.61.15-.61.76,0,.91,9.85,1.67,12.88,9.39,16.66,16.66l6.36,11.81c7.88,14.69,6.06,13.33,12.72,14.39,1.67.3,1.36,3.03,0,3.03-5.15-.15-7.73-.3-10.15-.15-9.24.3-8.48,1.21-12.72-6.67l-13.03-24.24c-7.73-14.39-7.27-15.6-12.12-15.6-2.88,0-4.24-.15-5.15.61-1.21,1.21-1.06,3.03-1.06,13.03v16.21c0,13.63.45,13.03,9.85,13.78,2.12.15,1.36,3.03,0,3.03-12.88-.3-29.69-.15-35.14,0-1.97,0-1.67-2.88,0-3.03,7.27-.76,9.54-.15,9.54-11.36v-71.95c0-11.36-2.27-10.75-9.54-11.36-1.67-.15-1.82-3.18,0-3.03,12.57.76,35.75,0,35.75,0,14.39,0,25.6.91,32.42,14.39ZM399.5,482.44c0,9.24-.3,11.97,1.97,13.48,1.97,1.21,13.03.61,16.81-1.21,6.67-3.03,9.24-10.3,9.85-15.6.76-6.97-.15-17.27-7.72-23.33-4.39-3.64-12.72-4.54-16.36-3.18-5.15,1.82-4.54,4.7-4.54,14.39v15.45ZM498.72,544.4c2.12.3,2.12,3.03.45,3.03-14.24-.61-26.66-.61-36.36,0-1.82.15-2.12-2.73,0-3.03,10.45-1.06,10.6.15,10.6-15.3v-64.23c0-15.3-.76-14.09-10.6-15.15-2.12-.3-1.82-3.18,0-3.03,9.69.45,22.12.45,36.36,0,1.67,0,1.51,2.73-.45,3.03-8.33,1.06-9.39-.61-9.39,13.94v66.65c0,14.69.61,12.88,9.39,14.09ZM593.39,443.66c1.06.61.45,1.51.45,3.18l-1.36,23.48s-.15,1.82-1.36,2.12c-1.97.3-2.42-1.06-2.42-1.06-1.21-9.54-.45-9.54-13.48-16.21-8.94-4.39-23.03-7.88-33.17-1.67-12.42,7.57-16.66,26.51-16.81,35.45-.3,12.57,4.54,39.08,22.72,51.05,8.18,5.45,15.75,5.91,23.78,1.67,13.33-7.12,17.72-10.3,21.06-22.27,0,0,.3-.76,1.51-.76s1.51.76,1.51.76c.3.61.15,2.73.15,3.33v7.27c0,16.66,2.12,13.48-14.54,16.66l-6.97,1.36c-19.24,3.63-41.51,1.97-56.65-20.45-11.06-17.12-12.88-45.29-2.42-62.71,13.94-23.03,32.72-22.42,54.23-19.85,4.39.46,9.39,1.06,17.27,1.82,2.12.3,2.58-.15,5.15-3.18,0,0,.76-.15,1.36,0ZM645.19,492.44h25.45c13.63,0,13.94-.61,13.94-8.33v-19.24c0-15.3-.76-14.09-10.6-15.15-2.12,0-1.82-3.03,0-3.03,9.69.45,22.12.45,36.36,0,1.67,0,1.51,3.03-.45,3.03-8.33,1.06-9.54-.61-9.54,13.94v66.65c0,14.69.76,12.88,9.54,14.09,2.12,0,2.12,3.03.45,3.03-14.24-.61-26.66-.61-36.36,0-1.82,0-2.12-3.03,0-3.03,10.45-1.06,10.6.15,10.6-15.3v-23.03c-.3-7.42-.91-7.42-13.03-7.42h-26.51c-13.03,0-12.88,1.06-13.03,7.58v24.08c0,14.69.61,12.88,9.39,14.09,2.12,0,2.12,3.03.46,3.03-14.24-.61-26.66-.61-36.36,0-1.82,0-2.12-3.03,0-3.03,10.45-1.06,10.6.15,10.6-15.3v-64.23c0-15.3-.61-14.09-10.6-15.15-2.12,0-1.82-3.03,0-3.03,9.69.45,22.12.45,36.36,0,1.67,0,1.51,3.03-.46,3.03-8.33,1.06-9.39-.61-9.39,13.94v20.6c-.15,7.57.15,8.18,13.18,8.18ZM841.05,544.4c2.12.3,2.12,3.03.46,3.03-14.24-.61-26.66-.61-36.36,0-1.82.15-2.12-2.73,0-3.03,10.45-1.06,10.6.15,10.6-15.3v-57.41c0-3.03.15-3.94-.46-4.09-.76-.3-1.36,1.36-2.42,3.64l-31.96,72.56c-.76,2.42-1.06,3.33-2.58,4.09-1.36.61-3.94,1.36-4.24,0-.76-2.27-.76-4.24-3.64-11.66l-30.15-71.95c-.45-1.06-1.67-.91-1.67.61v59.38c0,4.24.45,7.57.76,10.15.76,8.94,1.36,8.48,10.6,10,1.67.3,1.36,3.03,0,3.03-12.12-.45-20.9-.45-29.08,0-1.21,0-1.82-2.73,0-3.03,9.39-1.51,9.54-1.21,10.76-9.54.15-2.27.61-5.15.61-9.09v-61.96c0-13.78.61-12.57-10.91-14.09-.91-.15-1.06-3.18.91-3.03,6.36.15,9.85,0,16.06,0,12.72-.3,11.82-1.21,16.36,10.3l24.99,60.44c.76,2.12,1.21,3.63,2.42,3.63s2.12-1.97,3.03-4.09l27.27-60.59c4.85-10.91,3.94-10,16.06-9.69h13.48c1.36,0,1.51,2.88-.3,3.03-10.3.91-10,1.06-10,15.15v65.44c0,14.69.61,12.88,9.39,14.09ZM888.16,544.4c2.12.3,2.12,3.03.46,3.03-14.24-.61-26.66-.61-36.36,0-1.82.15-2.12-2.73,0-3.03,10.45-1.06,10.6.15,10.6-15.3v-64.23c0-15.3-.76-14.09-10.6-15.15-2.12-.3-1.82-3.18,0-3.03,9.69.45,22.12.45,36.36,0,1.67,0,1.51,2.73-.46,3.03-8.33,1.06-9.39-.61-9.39,13.94v66.65c0,14.69.61,12.88,9.39,14.09ZM984.65,459.72c-.76-8.94-4.09-8.48-13.48-10-1.67-.3-1.21-3.03,0-3.03,12.27.3,23.78.3,31.96,0,1.21,0,1.82,2.73,0,3.03-9.39,1.51-9.54,1.21-10.76,9.39-.3,2.42-.61,5.3-.61,9.09v68.32c0,2.27.15,10.6-1.21,11.81-1.06.91-1.82,1.36-2.73,1.21-.91-.3-6.36-8.03-8.64-10.45l-59.38-69.08c-1.97-2.12-2.12-2.12-2.73-1.82-1.06.45-.76,2.42-.76,4.24v51.81c0,4.24.3,7.57.61,10.15.91,8.94,4.09,8.48,13.48,10,1.67.3,1.21,3.03,0,3.03-12.27-.45-23.63-.45-31.96,0-1.21,0-1.82-2.73,0-3.03,9.39-1.51,9.69-1.21,10.76-9.54.3-2.27.76-5.15.76-9.09v-57.87c0-9.39.3-9.09-2.58-12.27-5.45-6.51-4.7-5.3-8.79-5.91-1.82-.3-1.36-3.03,0-3.03h11.06c8.18,0,8.48-2.73,18.18,8.94l52.26,60.74c1.82,2.27,2.88,3.03,3.94,3.03,1.06-.15,1.36-1.21,1.36-2.58v-47.11c0-4.24-.45-7.58-.76-10ZM1050.54,446.69c23.03,0,38.78.3,50.75,22.42,8.79,15.91,8.94,42.72-.76,57.87-11.82,18.63-22.27,20.6-46.96,20.45,0,0-28.63-.3-41.2,0-1.51,0-1.51-2.88,0-3.03,10.6-.76,10.3-.3,10.3-14.09v-66.35c0-13.94.61-13.48-8.94-14.24-1.36-.15-1.36-3.18.61-3.03,10.76.45,36.2,0,36.2,0ZM1038.12,468.35v56.96c0,8.94-.61,13.33,2.58,15.3,4.7,3.03,21.21,2.42,27.42.15,13.03-4.7,17.57-15,20.45-26.51,3.79-15,4.7-36.36-9.09-51.96-8.79-9.85-22.57-11.21-30.9-10.15-3.33.46-5.45.76-6.67,1.52-4.39,2.73-3.79,7.12-3.79,14.69ZM582.74,604.43h13.73c7.36,0,7.52-.33,7.52-4.5v-10.38c0-8.26-.41-7.6-5.72-8.18-1.15,0-.98-1.64,0-1.64,5.23.25,11.94.25,19.62,0,.9,0,.82,1.64-.25,1.64-4.5.57-5.15-.33-5.15,7.52v35.97c0,7.93.41,6.95,5.15,7.6,1.15,0,1.15,1.64.25,1.64-7.69-.33-14.39-.33-19.62,0-.98,0-1.15-1.64,0-1.64,5.64-.57,5.72.08,5.72-8.26v-12.43c-.16-4.01-.49-4.01-7.03-4.01h-14.31c-7.03,0-6.95.57-7.03,4.09v13c0,7.93.33,6.95,5.07,7.6,1.14,0,1.14,1.64.25,1.64-7.69-.33-14.39-.33-19.62,0-.98,0-1.15-1.64,0-1.64,5.64-.57,5.72.08,5.72-8.26v-34.67c0-8.26-.33-7.6-5.72-8.18-1.15,0-.98-1.64,0-1.64,5.23.25,11.94.25,19.62,0,.9,0,.82,1.64-.25,1.64-4.5.57-5.07-.33-5.07,7.52v11.12c-.08,4.09.08,4.41,7.11,4.41ZM668.75,586.77c7.28,8.99,7.36,21.01,4.09,30.74-2.7,8.59-7.93,14.39-16.52,16.76-6.38,1.8-16.02,1.55-23.47-4.99-8.58-7.68-9.97-20.93-8.99-27.72,1.47-9.4,4.41-16.76,14.8-21.42,2.86-1.23,4.41-1.55,7.44-1.88,6.79-.74,16.11.41,22.65,8.5ZM633.43,615.71c.98,5.56,3.6,12.26,9.97,15.29,3.6,1.72,8.58,1.23,12.18-.65,7.36-4.01,9.08-14.72,9.81-19.95.65-5.23-.16-20.19-6.3-25.92-3.92-3.76-10.06-3.84-12.67-3.35-2.45.41-5.15,1.64-7.28,3.93-5.64,6.13-7.19,23.05-5.72,30.66ZM703.16,579.74c.65,0,.65,1.55-.16,1.64-9.16,1.06-8.99.25-8.99,8.01v34.01c0,5.48.41,6.21,1.8,7.19,1.15.82,10.3,0,12.43-.49,3.11-.82,5.4-1.39,6.95-5.4.08-.57.57-1.55.82-2.37.08-.25.41-.41.9-.41.74,0,.74.82.74.82l-.74,4.99c-1.23,7.77.25,6.62-7.11,6.38-6.95-.25-17.99-.33-29.43,0-.65,0-.9-1.47,0-1.64,5.31-.9,5.15-.33,5.15-8.5v-35.32c0-7.36.49-6.38-5.15-7.28-.9-.16-.65-1.64,0-1.64,8.1.16,14.55,0,22.81,0ZM742.81,579.74c12.43,0,20.93.16,27.39,12.1,4.74,8.58,4.82,23.05-.41,31.23-6.38,10.06-12.02,11.12-25.35,11.04,0,0-15.45-.16-22.24,0-.82,0-.82-1.55,0-1.64,5.72-.41,5.56-.16,5.56-7.6v-35.81c0-7.52.33-7.28-4.82-7.68-.74-.08-.74-1.72.33-1.64,5.81.25,19.54,0,19.54,0ZM736.11,591.43v30.74c0,4.82-.33,7.19,1.39,8.26,2.54,1.64,11.45,1.31,14.8.08,7.03-2.54,9.48-8.09,11.04-14.31,2.04-8.09,2.53-19.62-4.91-28.04-4.74-5.31-12.18-6.05-16.68-5.48-1.8.25-2.94.41-3.6.82-2.37,1.47-2.04,3.84-2.04,7.93ZM798.24,632.47c1.15.16,1.15,1.64.25,1.64-7.69-.33-14.39-.33-19.62,0-.98.08-1.15-1.47,0-1.64,5.64-.57,5.72.08,5.72-8.26v-34.67c0-8.26-.41-7.6-5.72-8.18-1.15-.16-.98-1.72,0-1.64,5.23.25,11.94.25,19.62,0,.9,0,.82,1.47-.25,1.64-4.5.57-5.07-.33-5.07,7.52v35.97c0,7.93.33,6.95,5.07,7.6ZM850.31,586.77c-.41-4.82-2.21-4.58-7.28-5.4-.9-.16-.65-1.64,0-1.64,6.62.16,12.84.16,17.25,0,.65,0,.98,1.47,0,1.64-5.07.82-5.15.65-5.8,5.07-.16,1.31-.33,2.86-.33,4.91v36.87c0,1.23.08,5.72-.65,6.38-.57.49-.98.74-1.47.65-.49-.16-3.43-4.33-4.66-5.64l-32.05-37.28c-1.06-1.15-1.14-1.15-1.47-.98-.57.25-.41,1.31-.41,2.29v27.96c0,2.29.16,4.09.33,5.48.49,4.82,2.21,4.58,7.28,5.4.9.16.65,1.64,0,1.64-6.62-.25-12.75-.25-17.25,0-.65,0-.98-1.47,0-1.64,5.07-.82,5.23-.65,5.81-5.15.16-1.23.41-2.78.41-4.91v-31.23c0-5.07.16-4.91-1.39-6.62-2.94-3.51-2.53-2.86-4.74-3.19-.98-.16-.74-1.64,0-1.64h5.97c4.41,0,4.58-1.47,9.81,4.82l28.21,32.79c.98,1.23,1.55,1.64,2.13,1.64.57-.08.74-.65.74-1.39v-25.43c0-2.29-.25-4.09-.41-5.4ZM911.05,579.74c-.41,4.09-.74,8.26-.74,13.9,0,1.39-1.55,1.23-1.64.49-.65-7.03.65-5.48-7.2-9.57-6.05-3.19-13.57-4.91-19.21-1.31-7.52,4.82-9.24,16.52-8.99,22.4.16,6.46,3.6,20.03,13.08,25.1,4.58,2.53,9.89,1.88,14.55-.9,2.04-1.14,2.7-1.96,2.7-4.17v-8.26c0-7.77-.49-7.36-6.05-8.01-1.31-.16-.82-1.63-.25-1.63,7.52.16,12.76.25,18.48,0,1.14-.08.98,1.55.49,1.63-4.99.9-4.5.65-4.5,9.16v8.42c0,2.62-.25,3.03,1.64,3.6.65.25.65,1.23,0,1.39-13.57,3.68-26.57,4.91-35.07-.08-9.16-5.23-12.75-12.75-13.9-21.91-1.23-8.67-.49-17.25,7.85-25.51,7.69-7.6,18.15-6.87,25.02-5.56l8.99,1.55c.57.08,2.21.33,2.37.16.74-.57.98-.74,1.8-1.47.33-.25.57.08.57.57Z"/>
  <polygon points="312.37 549.43 72.43 547.43 312.37 545.43 312.37 549.43"/>
  <polygon points="1159.63 545.43 1399.57 547.43 1159.63 549.43 1159.63 545.43"/>
</svg>